<svg xmlns="http://www.w3.org/2000/svg" viewBox="0 0 374.49 435.65">
  <defs>
    <style>
      .cls-1 {
        fill: white;
        opacity: 0.1;
      }
    </style>
  </defs>
  <g id="Layer_2" data-name="Layer 2">
    <g id="Layer_1-2" data-name="Layer 1">
      <path d="m90.89 103.14-.79-.79a10.47 10.47 0 0 0-14.8 14.8l.41.41a9.58 9.58 0 0 0 17.85 7 9.45 9.45 0 0 0 .64-3 9.55 9.55 0 0 0 6.48-2.79 11.05 11.05 0 0 0 1.16-1.4L112 134.16l.17.17a3.12 3.12 0 0 1-4.26 4.26l-.17-.17-14.85-8.61a.85.85 0 0 0-1.19 0 .84.84 0 0 0 .39 1.43l14.7 8.76.29.17.08.08a4.84 4.84 0 0 0 6.53-6.53l-.1-.1a2.5 2.5 0 0 0-.23-.23l-10.57-17.7a9.62 9.62 0 0 0-2.05-10.44l-.11-.11c-3.63-3.86-7.18-3.32-9.74-2Zm-14.33.37a8.77 8.77 0 1 1 0 12.4 8.76 8.76 0 0 1 0-12.4Zm13.71 23a7.88 7.88 0 0 1-13.08-8 10.47 10.47 0 0 0 13-1.47 9.5 9.5 0 0 0 .84-.95 7.15 7.15 0 0 1 1.58 4.52 7.82 7.82 0 0 1-2.34 5.93Zm9.19-20.4.17.18a7.87 7.87 0 0 1-5.33 13.45 8.74 8.74 0 0 0-2.3-5.1 10.48 10.48 0 0 0-.1-10.1 6 6 0 0 1 7.56 1.6ZM168.14 40.26v-1.12a10.47 10.47 0 0 0-20.92.67v.58a9.58 9.58 0 1 0 8.25 17.29A9.44 9.44 0 0 0 158 56a9.56 9.56 0 0 0 6.63 2.4 12.27 12.27 0 0 0 1.81-.23l-4.07 19.22v.24a3.12 3.12 0 0 1-3.76 2.31 3.09 3.09 0 0 1-2.26-2.12v-.23l-4.98-16.49a.84.84 0 1 0-1.68 0 .94.94 0 0 0 .13.46L154.55 78a1.68 1.68 0 0 0 .09.32v.11a4.84 4.84 0 0 0 9.24-.29V78a1.82 1.82 0 0 0 0-.33l4.4-20.14a9.6 9.6 0 0 0 5.64-9v-.16c-.02-5.27-3-7.32-5.78-8.11Zm-10.7-9.54a8.77 8.77 0 1 1-8.44 9.05 8.78 8.78 0 0 1 8.44-9.05Zm-5.75 26.18a7.51 7.51 0 0 1-1.64-.12 7.88 7.88 0 0 1-2.46-14.64 10.49 10.49 0 0 0 10.46 7.8c.43 0 .85-.06 1.27-.12a7.15 7.15 0 0 1-1.94 4.37 7.81 7.81 0 0 1-5.69 2.71Zm20.65-8.59v.25a7.88 7.88 0 0 1-13.09 6.16 8.69 8.69 0 0 0 1.86-5.29A10.43 10.43 0 0 0 168 42a6 6 0 0 1 4.34 6.31ZM298.13 185.47l.8-.79a10.47 10.47 0 0 0-14.8-14.8l-.41.41a9.58 9.58 0 1 0-7 17.85 9.75 9.75 0 0 0 3 .65 9.55 9.55 0 0 0 2.79 6.47 9.69 9.69 0 0 0 1.4 1.16l-16.8 10.19-.17.16a3.12 3.12 0 0 1-4.26-4.26l.17-.16 8.6-14.86a.84.84 0 0 0 0-1.19.85.85 0 0 0-1.19 0 .89.89 0 0 0-.24.42l-8.75 14.69-.18.28-.07.08a4.84 4.84 0 0 0 6.53 6.53l.1-.1a2.5 2.5 0 0 0 .23-.23l17.7-10.57a9.62 9.62 0 0 0 10.44-2.05l.11-.11c3.87-3.62 3.33-7.24 2-9.77Zm-.36-14.33a8.77 8.77 0 1 1-12.4 0 8.76 8.76 0 0 1 12.4 0Zm-23 13.72a8.55 8.55 0 0 1-1-1.28 7.88 7.88 0 0 1 9-11.81 10.46 10.46 0 0 0 1.47 13 12.39 12.39 0 0 0 .94.83 7.1 7.1 0 0 1-4.51 1.58 7.81 7.81 0 0 1-5.93-2.32Zm20.36 9.14-.17.17a7.88 7.88 0 0 1-13.46-5.33 8.68 8.68 0 0 0 5.14-2.26 10.43 10.43 0 0 0 10.09-.1 6 6 0 0 1-1.6 7.52ZM212.71 123.34a4.35 4.35 0 0 0 4.13 3.41 3.05 3.05 0 0 0 2.4-1 3 3 0 0 0 .6-2.55 4.38 4.38 0 0 0-4.09-3.43 3 3 0 0 0-3.09 2.84 2.76 2.76 0 0 0 .07.76Zm3-2.33a3.12 3.12 0 0 1 2.87 2.4 1.71 1.71 0 0 1-1.79 2.14 3.05 3.05 0 0 1-1.78-.67 3.1 3.1 0 0 1-1-1.65 1.85 1.85 0 0 1 .36-1.54 1.73 1.73 0 0 1 1.38-.73ZM202.92 110a4.12 4.12 0 0 0 3.9 3.27 2.79 2.79 0 0 0 2.32-1 2.88 2.88 0 0 0 .59-2.43 4.18 4.18 0 0 0-3.93-3.28 3 3 0 0 0-2.29 1 2.84 2.84 0 0 0-.59 2.44Zm2.82-2.22a2.85 2.85 0 0 1 1.74.69 2.94 2.94 0 0 1 1 1.62 1.73 1.73 0 0 1-.33 1.44 1.71 1.71 0 0 1-1.34.57 3 3 0 0 1-1.76-.69 2.84 2.84 0 0 1-1-1.63 1.69 1.69 0 0 1 .31-1.44 1.73 1.73 0 0 1 1.38-.61ZM222.65 114.22a3.7 3.7 0 0 0 1.26 2.11 3.59 3.59 0 0 0 2.3.87 2.61 2.61 0 0 0 2.11-.92 2.69 2.69 0 0 0 .47-2.16 3.84 3.84 0 0 0-3.57-3 2.73 2.73 0 0 0-2.05.86 2.65 2.65 0 0 0-.52 2.24Zm2.62-1.94a2.58 2.58 0 0 1 1.52.6 2.62 2.62 0 0 1 .87 1.4 1.37 1.37 0 0 1-1.44 1.7 2.38 2.38 0 0 1-1.53-.58 2.51 2.51 0 0 1-.86-1.41 1.51 1.51 0 0 1 .28-1.23 1.45 1.45 0 0 1 1.16-.48ZM212.06 115.05l3.35 1.67 1.46-5.37-3.15-1.41-.21.63Zm3.31-3-.81 2.94-1.08-.56.92-2.82ZM222.65 118.76l-2.08 1.81 3.87 4.57 2.72-2.27-4.07-4.51Zm.35 1.31 2.39 2.67-.74.74-2.29-2.72Z" class="cls-1" />
      <path d="M234.55 143.27a55.09 55.09 0 0 0 9.18-16.9l-1.15-.41 1.15.41a52.79 52.79 0 0 0 2.13-8.22 22.79 22.79 0 0 0 .3-5.15l-.25-1.28v-.19l.12-.46a10.25 10.25 0 0 0-.54-2.33 6.48 6.48 0 0 0-1.93-2.77 6.76 6.76 0 0 0-1.93-1.07l-.24-.08-1.22-.37a7.94 7.94 0 0 0-4.35-.13 6.39 6.39 0 0 0-3.19 2.08 6.81 6.81 0 0 0-.76 1.16l-39.17-8.78a3.74 3.74 0 0 0-2.4.24 5 5 0 0 0-1.65 1.25l-1 1a12.87 12.87 0 0 0-1.32 1.87 3.69 3.69 0 0 0-.43 1.26 2.53 2.53 0 0 0 0 .91 2.49 2.49 0 0 0 .44 1c.08.08 8.26 10.89 16.58 21.85 4.18 5.47 8.37 11 11.66 15.16l4 5.15 1.22 1.54.45.45.6.59.13.13.26.08a2.38 2.38 0 0 0 .46 0 21.48 21.48 0 0 0 12.85-7.99Zm-12.66 5.44-.23-.24-1.18-1.47-3.9-5-.44-.57-.73-1-.45-.61-1.06-1.34-9.1-11.74-16.31-21.56-.3-.3a.41.41 0 0 1 .05-.19 2.15 2.15 0 0 1 .13-.32 6.9 6.9 0 0 1 .42-.63l.13-.13a2.82 2.82 0 0 0 .53-.66 5.79 5.79 0 0 1 .93-.92 2.68 2.68 0 0 1 .44-.45 3.23 3.23 0 0 1 .41-.49l.09-.09a1.56 1.56 0 0 1 .74-.08l40.28 9.18a20.27 20.27 0 0 1-.21 3.48A49.87 49.87 0 0 1 220.89 138l-28.71-36.43-1 .75 29 36.92.33-.33.24.24.18.18.08-.07.09.09.22-.21a3.71 3.71 0 0 1 3.44.8 4.24 4.24 0 0 1 1.5 3.27A4.86 4.86 0 0 1 225 146a14 14 0 0 1-3.11 2.71Zm4-1.32c-.33.17-.69.34-1 .49a13.5 13.5 0 0 0 1.07-1.07 6 6 0 0 0 1.69-3.59 5.44 5.44 0 0 0-1.92-4.19 5.25 5.25 0 0 0-3.16-1.23 54 54 0 0 0 9.23-17.14 41.77 41.77 0 0 0 1.61-6.89 19.29 19.29 0 0 0 .2-4 5.15 5.15 0 0 1 .32-.82.91.91 0 0 0 .17-.17 8.56 8.56 0 0 1 .51-.77 3.18 3.18 0 0 1 .41-.41l.11-.11a2.34 2.34 0 0 1 .31-.32 4 4 0 0 1 1.09-.5 4.56 4.56 0 0 1 1.33-.14 6 6 0 0 1 1.58.24l.88.27.35.13.33.12a3.58 3.58 0 0 1 1 .58 4.78 4.78 0 0 1 .45.45l.16.16.32.33.12.12.27.58a4.18 4.18 0 0 1 .22.86l.05.18.07.07.25 1.33a9.68 9.68 0 0 1 .17 2.46 26.45 26.45 0 0 1-.31 3.2l-.08.07c-.1.49-.18 1-.29 1.51-.08.08-.06.29-.08.45l-.33 1.38-.11.42c-.31 1.19-.7 2.44-1.11 3.75-.1.1-.1.34-.17.51-.17.46-.33.94-.51 1.41a2 2 0 0 0-.24.61l-.7 1.73a2.52 2.52 0 0 0-.14.33c-.25.56-.52 1.15-.79 1.71-.09.22-.19.43-.29.64-.23.43-.45.89-.69 1.34a2.21 2.21 0 0 0-.3.57c-.68 1.25-1.39 2.46-2.15 3.65l-.29.45-.93 1.32-.38.38c-.41.57-.83 1.09-1.25 1.62a11.5 11.5 0 0 1-1.16 1.16 3.06 3.06 0 0 0-.36.36l-.79.79-.39.4-1 1-.49.49-.65.5a1.44 1.44 0 0 1-.64.42c-.27.06-.3.3-.56.36a4.17 4.17 0 0 0-1 .52ZM287.88 52.2a4.36 4.36 0 0 0-2.19-4.89 2.92 2.92 0 0 0-4.28 1.9 4.36 4.36 0 0 0 2.15 4.89 3 3 0 0 0 4-1.18 2.83 2.83 0 0 0 .28-.71Zm-3.68.8a3.07 3.07 0 0 1-1.51-3.42 1.7 1.7 0 0 1 2.55-1.12 3 3 0 0 1 1.3 1.39 3.13 3.13 0 0 1 .16 1.91 1.89 1.89 0 0 1-1 1.23 1.75 1.75 0 0 1-1.56 0ZM290.74 68.54a4.12 4.12 0 0 0-2.06-4.66 2.78 2.78 0 0 0-2.51-.15 2.9 2.9 0 0 0-1.61 1.92 4.18 4.18 0 0 0 2.07 4.67 2.91 2.91 0 0 0 2.51.12 2.86 2.86 0 0 0 1.6-1.9Zm-3.51.74a3 3 0 0 1-1.45-3.28 1.69 1.69 0 0 1 .93-1.14 1.62 1.62 0 0 1 1.44.08 2.93 2.93 0 0 1 1.28 1.39 2.81 2.81 0 0 1 .18 1.91 1.57 1.57 0 0 1-2.38 1ZM274.94 56a3.76 3.76 0 0 0-.2-2.45 3.59 3.59 0 0 0-1.67-1.79 2.62 2.62 0 0 0-2.3-.11 2.68 2.68 0 0 0-1.39 1.73 3.85 3.85 0 0 0 1.88 4.26 2.71 2.71 0 0 0 2.21.14 2.66 2.66 0 0 0 1.47-1.78Zm-3.21.58a2.51 2.51 0 0 1-1.1-1.2 2.57 2.57 0 0 1-.16-1.64 1.45 1.45 0 0 1 .79-1 1.41 1.41 0 0 1 1.25.09 2.38 2.38 0 0 1 1.12 1.2 2.5 2.5 0 0 1 .14 1.64 1.5 1.5 0 0 1-.79 1 1.44 1.44 0 0 1-1.25-.12ZM284.8 59.92l-2.27-3-3.68 4.16 2.2 2.66.47-.47Zm-4.28 1.19 2-2.28.73 1-2.08 2.12ZM277 51.91l2.65-.71-1.43-5.81-3.44.83 1.64 5.84Zm.26-1.33-1-3.46 1-.33.86 3.45Z" class="cls-1" />
      <path d="M277.13 24.65a55.22 55.22 0 0 0-15.72 11.1l.85.87-.85-.87a51.36 51.36 0 0 0-5.54 6.42 22.94 22.94 0 0 0-2.56 4.49l-.31 1.26-.06.18-.31.36a10.27 10.27 0 0 0-.55 2.33 6.7 6.7 0 0 0 .5 3.34 6.72 6.72 0 0 0 1.27 1.81l.18.18.92.87a8 8 0 0 0 3.85 2 6.39 6.39 0 0 0 3.78-.45 6.84 6.84 0 0 0 1.2-.7L295 83.09a3.67 3.67 0 0 0 2.26.85 5.09 5.09 0 0 0 2-.39l1.32-.45a12.16 12.16 0 0 0 2-1.09 3.86 3.86 0 0 0 .95-.94 2.58 2.58 0 0 0 .41-.81 2.51 2.51 0 0 0 .05-1.09c0-.11-2.58-13.42-5.19-26.94-1.33-6.75-2.63-13.58-3.74-18.75l-1.32-6.39-.41-1.93-.21-.6-.27-.79-.06-.18-.2-.19a2.55 2.55 0 0 0-.39-.24 21.52 21.52 0 0 0-15.07 1.49Zm13.75.74.11.31.41 1.84 1.28 6.22.14.7.24 1.18.13.74.35 1.67 3 14.56 5.08 26.55.14.41a.86.86 0 0 1-.13.14l-.26.23a7.08 7.08 0 0 1-.66.38l-.17.06a3.23 3.23 0 0 0-.77.35 5.37 5.37 0 0 1-1.23.42 3.39 3.39 0 0 1-.61.21 3 3 0 0 1-.58.25h-.12a1.48 1.48 0 0 1-.7-.25l-32.09-26.02a19.8 19.8 0 0 1 1.74-3 49.88 49.88 0 0 1 20.88-16.93l9.61 45.39 1.2-.25-9.67-46-.44.15-.11-.31-.08-.25h-.11v-.13l-.28.1a3.76 3.76 0 0 1-2.73-2.25 4.21 4.21 0 0 1 .1-3.6 4.88 4.88 0 0 1 2.45-1.82 14.46 14.46 0 0 1 3.88-1.05Zm-4.13-.57h1.13a14.12 14.12 0 0 0-1.43.48 6 6 0 0 0-3.1 2.47 5.42 5.42 0 0 0-.13 4.62 5.16 5.16 0 0 0 2.28 2.49 54.2 54.2 0 0 0-15.87 11.28 42.58 42.58 0 0 0-4.49 5.46 20.23 20.23 0 0 0-2 3.52 5.17 5.17 0 0 1-.64.6.88.88 0 0 0-.23.07 6.56 6.56 0 0 1-.81.47 2.76 2.76 0 0 1-.55.19l-.14.05a2.07 2.07 0 0 1-.42.14 4 4 0 0 1-1.19 0 4.64 4.64 0 0 1-1.26-.46 6 6 0 0 1-1.32-.91l-.67-.64-.24-.27-.25-.25a3.48 3.48 0 0 1-.64-1 3 3 0 0 1-.2-.6l-.08-.21-.14-.44-.06-.16v-.64a4.49 4.49 0 0 1 .18-.87v-.27l.37-1.31a10 10 0 0 1 .94-2.29 24.72 24.72 0 0 1 1.7-2.72h.1c.3-.4.59-.81.93-1.22.1 0 .17-.24.27-.37l.91-1.09.28-.34c.81-.92 1.7-1.87 2.65-2.86.14 0 .24-.26.38-.39.36-.34.71-.69 1.09-1 .17-.06.31-.28.48-.44l1.42-1.29a2.1 2.1 0 0 0 .27-.24c.48-.39 1-.8 1.47-1.18.18-.16.36-.3.54-.44.4-.29.8-.61 1.21-.9a2.72 2.72 0 0 0 .53-.38c1.16-.82 2.33-1.6 3.54-2.32l.46-.28 1.41-.77.51-.17c.62-.33 1.23-.62 1.85-.9a11 11 0 0 1 1.55-.53 4.5 4.5 0 0 0 .48-.16l1.06-.36.53-.18 1.29-.44.65-.22.81-.15a1.29 1.29 0 0 1 .76-.1c.28.06.4-.14.66-.07a4.57 4.57 0 0 0 1.11 0ZM32.7 195.8a4.16 4.16 0 0 0 2.79-.41 4.26 4.26 0 0 0 2-2.06 2.93 2.93 0 0 0-2.15-4.16 4.37 4.37 0 0 0-4.75 2.43 3 3 0 0 0 1.41 4 2.7 2.7 0 0 0 .73.23Zm-1-3.62a3.09 3.09 0 0 1 1.43-1.45 3.18 3.18 0 0 1 1.9-.26 1.85 1.85 0 0 1 1.28.91 1.87 1.87 0 0 1 0 1.57 3.07 3.07 0 0 1-1.31 1.38 3.22 3.22 0 0 1-1.91.27 1.91 1.91 0 0 1-1.28-.93 1.75 1.75 0 0 1-.13-1.56ZM16.55 199.61a4.12 4.12 0 0 0 4.53-2.32 2.8 2.8 0 0 0 0-2.52 2.91 2.91 0 0 0-2-1.5 4.18 4.18 0 0 0-4.54 2.35 2.92 2.92 0 0 0 0 2.5 2.84 2.84 0 0 0 2.01 1.49Zm-.94-3.46a2.75 2.75 0 0 1 1.31-1.34 2.88 2.88 0 0 1 1.89-.3 1.68 1.68 0 0 1 1.19.86 1.64 1.64 0 0 1 0 1.45 3 3 0 0 1-1.32 1.36 2.84 2.84 0 0 1-1.9.28 1.63 1.63 0 0 1-1.2-.83 1.71 1.71 0 0 1 .03-1.48ZM28.17 183.11a3.75 3.75 0 0 0 2.44-.35 3.57 3.57 0 0 0 1.7-1.77 2.49 2.49 0 0 0-1.84-3.58 3.84 3.84 0 0 0-4.15 2.12 2.5 2.5 0 0 0 1.85 3.58Zm-.76-3.18a2.51 2.51 0 0 1 1.14-1.16 2.62 2.62 0 0 1 1.63-.26 1.48 1.48 0 0 1 1 .73 1.43 1.43 0 0 1 0 1.26 2.36 2.36 0 0 1-1.13 1.18 2.49 2.49 0 0 1-1.63.24 1.48 1.48 0 0 1-1-.73 1.46 1.46 0 0 1-.01-1.26ZM24.81 193.18l2.84-2.44-4.37-3.44-2.53 2.36.5.44ZM23.37 189l2.39 1.88-.93.78-2.24-1.95ZM32.35 184.87l.86 2.61 5.72-1.77-1-3.39-5.74 2Zm1.34.18 3.4-1.15.39 1-3.39 1Z" class="cls-1" />
      <path d="M59.57 183.46a55.45 55.45 0 0 0-12-15l-.83.9.83-.9a51.85 51.85 0 0 0-6.74-5.16 22.67 22.67 0 0 0-4.62-2.3l-1.28-.26-.18-.05-.38-.29A9.89 9.89 0 0 0 32 160a6.61 6.61 0 0 0-3.3.69A6.8 6.8 0 0 0 27 162l-.16.19-.81 1a7.81 7.81 0 0 0-1.82 4 6.4 6.4 0 0 0 .67 3.75 7.53 7.53 0 0 0 .77 1.16L2.27 204.69a3.74 3.74 0 0 0-.72 2.3 5.19 5.19 0 0 0 .51 2l.53 1.3a12.57 12.57 0 0 0 1.21 1.94 3.77 3.77 0 0 0 1 .89 2.63 2.63 0 0 0 .84.37 2.72 2.72 0 0 0 1.1 0c.1 0 13.24-3.36 26.58-6.75C40 205 46.7 203.31 51.81 201.9l6.3-1.69 1.9-.52.59-.24.77-.32.18-.07.17-.21a2.32 2.32 0 0 0 .22-.41 21.56 21.56 0 0 0-2.37-14.98Zm.07 13.78-.31.12-1.81.51-6.13 1.65-.7.18-1.16.31-.73.17-1.65.45-14.36 3.81-26.21 6.62-.4.16-.18-.12-.24-.25a6.9 6.9 0 0 1-.42-.63L5.3 210a2.93 2.93 0 0 0-.4-.74 6.22 6.22 0 0 1-.49-1.21 6.07 6.07 0 0 1-.24-.59 4.25 4.25 0 0 1-.29-.56.5.5 0 0 1 0-.13 1.5 1.5 0 0 1 .21-.71l24.11-33.47a21.08 21.08 0 0 1 3.12 1.55A49.85 49.85 0 0 1 49.44 194L4.69 206.25l.31 1.18 45.32-12.33-.17-.43.31-.13.24-.1v-.1l.12-.05-.11-.28a3.72 3.72 0 0 1 2.08-2.85 4.17 4.17 0 0 1 3.6-.11 4.82 4.82 0 0 1 2 2.32 14.33 14.33 0 0 1 1.25 3.87Zm.33-4.16c0 .37.05.77.05 1.13a11.4 11.4 0 0 0-.57-1.4 6 6 0 0 0-2.64-3 5.43 5.43 0 0 0-4.61.14 5.15 5.15 0 0 0-2.36 2.43 54.49 54.49 0 0 0-12.19-15.19 43.27 43.27 0 0 0-5.72-4.16 19.49 19.49 0 0 0-3.62-1.75 4.54 4.54 0 0 1-.63-.61 2.18 2.18 0 0 0-.09-.23 6.92 6.92 0 0 1-.52-.77 3.21 3.21 0 0 1-.22-.54l-.05-.13a2.09 2.09 0 0 1-.17-.41 4 4 0 0 1 0-1.19 4.81 4.81 0 0 1 .39-1.29 5.77 5.77 0 0 1 .83-1.36l.6-.71.26-.26.23-.26a3.31 3.31 0 0 1 .93-.69 3 3 0 0 1 .59-.24l.2-.09.44-.17.15-.06h.64a3.66 3.66 0 0 1 .87.13h.28l1.33.29a9.61 9.61 0 0 1 2.33.81 25.61 25.61 0 0 1 2.78 1.5v.11c.41.27.85.54 1.27.85 0 .1.25.16.38.25l1.15.84.35.26c1 .75 2 1.6 3 2.48.05.14.27.23.4.36.36.34.74.67 1.1 1 .07.18.3.3.47.46L49 173a2.1 2.1 0 0 0 .24.27c.43.45.86.92 1.27 1.39a5.66 5.66 0 0 1 .47.52c.32.37.66.76 1 1.15.07.19.27.33.4.5a55.65 55.65 0 0 1 2.53 3.41l.3.44L56 182l.2.5c.37.6.69 1.2 1 1.79a13.21 13.21 0 0 1 .62 1.52 3.8 3.8 0 0 0 .18.47l.43 1 .21.52.51 1.26.26.64.2.81a1.3 1.3 0 0 1 .14.74c0 .29.16.4.11.67a5.06 5.06 0 0 0 .1 1.1ZM343.57 127.55a6.48 6.48 0 0 1 12.83 0h3.79a9.91 9.91 0 0 0-19.63 0Zm3.18-2.3a4.53 4.53 0 0 0-1.25 2.3h8.95a4.56 4.56 0 0 0-7.67-2.33Zm-30.11-23.33a.94.94 0 0 1-.91-.94c0-.53 1-.86 1-.86h1v-1.38a4 4 0 0 1 1.1-2.77 3.68 3.68 0 0 1 5.42 0 4 4 0 0 1 .59.78 3.73 3.73 0 0 1 2.46-.93A3.77 3.77 0 0 1 330 97a3.89 3.89 0 0 1 1.1 2.76v.24h2.9a7.94 7.94 0 0 1 3 1.1 10.48 10.48 0 0 1 2.35 2.06l29.2-1a5.73 5.73 0 0 1 5.95 5.21 4.76 4.76 0 0 1-.32 2.27 5.7 5.7 0 0 1-5.5 3.28h-.59l-29-2a10.9 10.9 0 0 1-2.33 2.27 5.4 5.4 0 0 1-3 .91v-.09h-2.6v2.65a12.27 12.27 0 0 1 5.9.17 12 12 0 0 1 5.46 3.21 11.8 11.8 0 0 1 19.89 7.42 3.8 3.8 0 0 1 1.48 1 3.56 3.56 0 0 1 .38 4.09h1.18a3.5 3.5 0 0 1 2.46 1 3.38 3.38 0 0 1 1 2.46 3.57 3.57 0 0 1-.43 1.69h3.33a.94.94 0 0 1 .93.6 1 1 0 0 1-.26 1.08 31.37 31.37 0 0 1-12.3 7.58c-.67.23-1.33.44-1.9.61s-1.34.34-2.06.49h-28a.91.91 0 0 1-.33 0c-.77-.17-1.47-.36-2.12-.53l-2.1-.64c-1-.34-1.9-.69-2.86-1.05a25.86 25.86 0 0 1-2.64-1.19 30.31 30.31 0 0 1-4.07-2.42 27.94 27.94 0 0 1-3.36-2.79 1 1 0 0 1 .74-1.67h3.94a3.5 3.5 0 0 1 .61-4.17 3.84 3.84 0 0 1 1.61-.87v-18.64h-1.15a1 1 0 0 1-.89-.51 1.05 1.05 0 0 1 .41-1.44 1 1 0 0 1 .49-.13h1.14v-1.54h-1.08a1 1 0 0 1-.89-.51 1.07 1.07 0 0 1 .42-1.44 1 1 0 0 1 .49-.13h1v-2.58h-1.08a1 1 0 0 1-.89-.51 1.08 1.08 0 0 1 .91-1.58h1.06v-1.55h-1Zm16.94-.24h-2.44v2.14h1.8a1 1 0 0 1 .89.51 1.07 1.07 0 0 1-.42 1.44 1 1 0 0 1-.49.13h-1.78l-.51 2.58h2a.84.84 0 0 1 1 .69.92.92 0 0 1 0 .16c0 .53-1 .71-1 .71h-1.53v2.06h2.54a2.1 2.1 0 0 0 1.89-.34 8.91 8.91 0 0 0 2.28-2.26 1 1 0 0 1 .85-.43l29.51 2.06a3.93 3.93 0 0 0 3.79-2.08 3.52 3.52 0 0 0 .19-1.44 4.26 4.26 0 0 0-.46-1.48 3.59 3.59 0 0 0-3.41-2l-29.6 1a.91.91 0 0 1-.78-.36 8.69 8.69 0 0 0-2.18-2 5.82 5.82 0 0 0-2.18-.82Zm-8.13-1.9v28.05a3.37 3.37 0 0 1 1.33-.28H329V99.73a2.18 2.18 0 0 0-.55-1.5 1.69 1.69 0 0 0-1.25-.59 1.75 1.75 0 0 0-1.27.59 2.41 2.41 0 0 0-.55 1.5Zm5.18 19.2v3.43A7.12 7.12 0 0 1 333 122a7.84 7.84 0 0 1 3.4.78 6.47 6.47 0 0 1 2.5 2.2 12.27 12.27 0 0 1 1.72-3.21A10.11 10.11 0 0 0 336 119a10.52 10.52 0 0 0-5.37 0Zm0 5.53v3.13H338a4.44 4.44 0 0 0-1.37-2.43 3.71 3.71 0 0 0-1-.62 5.82 5.82 0 0 0-2.56-.59 5.51 5.51 0 0 0-2.39.55Zm-11.37-11.37v19.58h4.34a3.5 3.5 0 0 1-.48-1.78 4.09 4.09 0 0 1 0-.7c.05-.22.12-.44.19-.65V98.46a2.23 2.23 0 0 0-.55-1.5 1.66 1.66 0 0 0-1.25-.57 1.71 1.71 0 0 0-1.27.57 2.23 2.23 0 0 0-.55 1.5v14.59Zm5.81 17.19v.29a1.71 1.71 0 0 0 0 .32 1.66 1.66 0 0 0 .5 1.19 1.65 1.65 0 0 0 1.19.49h34.36a1.72 1.72 0 0 0 1.19-.49 1.61 1.61 0 0 0 .49-1.19 1.76 1.76 0 0 0-.37-1.08 1.72 1.72 0 0 0-1-.55c-9.17-1.1-24.08 0-34.58 0a1.68 1.68 0 0 0-1.5.89Zm44.37 9.74h-55.57a16 16 0 0 0 1.31 1 27.34 27.34 0 0 0 3.79 2.33c.8.41 1.61.81 2.47 1.17s1.74.7 2.67 1l1.89.65c.63.21 1.33.38 1.9.53h27.93c.63-.13 1.23-.28 1.9-.46l1.89-.58a28.71 28.71 0 0 0 9.78-5.69Zm-4.61-5.17h-46.12a1.57 1.57 0 0 0-1.07.42 1.62 1.62 0 0 0-.45 1.09 1.58 1.58 0 0 0 .45 1.1 1.63 1.63 0 0 0 1.1.46h46.11a1.66 1.66 0 0 0 1.06-.42 1.47 1.47 0 0 0 .46-1.08 1.55 1.55 0 0 0-1.56-1.55ZM157.07 194.31a6.48 6.48 0 0 1 12.83 0h3.79a9.92 9.92 0 0 0-19.64 0Zm3.18-2.29a4.5 4.5 0 0 0-1.25 2.29h9a4.57 4.57 0 0 0-7.67-2.32Zm-30.11-23.33a1 1 0 0 1-.91-.95c0-.53 1-.85 1-.85h1v-1.38a4 4 0 0 1 1.1-2.77 3.68 3.68 0 0 1 5.42 0 4 4 0 0 1 .59.78 3.71 3.71 0 0 1 2.46-.93 3.8 3.8 0 0 1 2.73 1.19 4 4 0 0 1 1.1 2.77v.25h2.9a7.83 7.83 0 0 1 3 1.1 10.06 10.06 0 0 1 2.27 2.1l29.2-1a5.48 5.48 0 0 1 5.3 3 5.4 5.4 0 0 1 .65 2.18 4.76 4.76 0 0 1-.32 2.27 5.7 5.7 0 0 1-5.5 3.28h-.59l-29-2a10.9 10.9 0 0 1-2.33 2.27 5.4 5.4 0 0 1-3 .91v-.09h-2.6v2.65a12.15 12.15 0 0 1 5.9.17 12 12 0 0 1 5.45 3.2 11.81 11.81 0 0 1 19.9 7.43 3.8 3.8 0 0 1 1.48 1 3.56 3.56 0 0 1 .38 4.09H179a3.51 3.51 0 0 1 2.46 1 3.41 3.41 0 0 1 1 2.47 3.5 3.5 0 0 1-.43 1.68h3.33a1 1 0 0 1 .66 1.69 31.26 31.26 0 0 1-12.29 7.58c-.67.23-1.33.44-1.9.61s-1.34.34-2.06.49h-28a.86.86 0 0 1-.32 0c-.77-.17-1.48-.36-2.12-.53l-2.1-.64c-1-.35-1.9-.69-2.86-1.05a24.91 24.91 0 0 1-2.64-1.19 29.36 29.36 0 0 1-4.07-2.43 27.1 27.1 0 0 1-3.36-2.78 1 1 0 0 1 0-1.33 1 1 0 0 1 .74-.34H129a3.57 3.57 0 0 1-.43-1.69 3.47 3.47 0 0 1 1-2.48 3.73 3.73 0 0 1 1.61-.87v-18.69H130a1 1 0 0 1-.89-.51 1.08 1.08 0 0 1 .91-1.58h1.14v-1.53h-1.08a1 1 0 0 1-.89-.51 1.05 1.05 0 0 1 .42-1.44 1.07 1.07 0 0 1 .49-.14h1v-2.57h-1.08a1 1 0 0 1-.89-.51 1.08 1.08 0 0 1 .42-1.45 1.19 1.19 0 0 1 .49-.13h1.06v-1.55h-1Zm16.94-.24h-2.44v2.14h1.8a1 1 0 0 1 .89.51 1.07 1.07 0 0 1-.42 1.44 1.05 1.05 0 0 1-.49.13h-1.78l-.52 2.58h2a.84.84 0 0 1 1 .69.86.86 0 0 1 0 .16c0 .53-1 .7-1 .7h-1.53v2.07h2.54a2.1 2.1 0 0 0 1.89-.34 8.91 8.91 0 0 0 2.28-2.26.93.93 0 0 1 .85-.43l29.5 2.06a3.91 3.91 0 0 0 3.79-2.08 3.21 3.21 0 0 0 .19-1.44 4 4 0 0 0-.45-1.48 3.56 3.56 0 0 0-3.41-2l-29.6 1a.93.93 0 0 1-.78-.36 8.87 8.87 0 0 0-2.18-2 5.89 5.89 0 0 0-2.18-.82Zm-8.13-1.9v28a3.57 3.57 0 0 1 1.33-.29h2.25v-27.77A2.2 2.2 0 0 0 142 165a1.67 1.67 0 0 0-1.25-.59 1.75 1.75 0 0 0-1.27.59 2.34 2.34 0 0 0-.55 1.49Zm5.17 19.2v3.43a7.22 7.22 0 0 1 2.39-.4 7.63 7.63 0 0 1 3.39.78 6.43 6.43 0 0 1 2.51 2.2 12.27 12.27 0 0 1 1.72-3.21 10.11 10.11 0 0 0-4.6-2.8 10.34 10.34 0 0 0-5.41 0Zm0 5.53v3.13h7.38a4.37 4.37 0 0 0-1.37-2.43 3.71 3.71 0 0 0-1-.62 5.82 5.82 0 0 0-2.56-.59 5.47 5.47 0 0 0-2.39.55Zm-11.37-11.37v19.58h4.34a3.59 3.59 0 0 1-.47-1.78 4.21 4.21 0 0 1 0-.71c0-.21.12-.43.19-.64v-31.14a2.2 2.2 0 0 0-.55-1.49 1.62 1.62 0 0 0-1.25-.57 1.66 1.66 0 0 0-1.27.57 2.2 2.2 0 0 0-.55 1.49v14.6Zm5.82 17.19a1.31 1.31 0 0 0 0 .28 1.82 1.82 0 0 0 0 .33 1.72 1.72 0 0 0 .49 1.19 1.73 1.73 0 0 0 1.2.49h34.36a1.72 1.72 0 0 0 1.19-.49 1.64 1.64 0 0 0 .49-1.19 1.67 1.67 0 0 0-.38-1.08 1.62 1.62 0 0 0-1-.55c-9.17-1.1-24.09 0-34.58 0a1.67 1.67 0 0 0-1.5.89Zm44.37 9.74h-55.57a14 14 0 0 0 1.31 1 25 25 0 0 0 3.79 2.33c.8.42 1.61.82 2.46 1.18s1.75.7 2.68 1l1.89.65c.63.21 1.33.38 1.9.53h27.93c.62-.13 1.23-.29 1.89-.46l1.9-.58a29.16 29.16 0 0 0 9.78-5.69Zm-4.61-5.17H132.2a1.6 1.6 0 0 0-1.06.41 1.62 1.62 0 0 0-.45 1.1 1.56 1.56 0 0 0 .45 1.1 1.63 1.63 0 0 0 1.1.46h46.11a1.66 1.66 0 0 0 1.06-.42 1.47 1.47 0 0 0 .46-1.08 1.55 1.55 0 0 0-1.56-1.55ZM33 60.57a6.48 6.48 0 0 1 12.83 0h3.79a9.92 9.92 0 0 0-19.64 0Zm3.18-2.3a4.46 4.46 0 0 0-1.18 2.3h8.94a4.47 4.47 0 0 0-1.23-2.3 4.56 4.56 0 0 0-6.43 0ZM6.09 35a1 1 0 0 1-.91-1c0-.53 1-.85 1-.85h1v-1.39A4 4 0 0 1 8.21 29a3.81 3.81 0 0 1 2.69-1.2 3.82 3.82 0 0 1 2.73 1.2 4.44 4.44 0 0 1 .59.78 3.71 3.71 0 0 1 2.46-.93A3.79 3.79 0 0 1 19.41 30a3.94 3.94 0 0 1 1.1 2.76v.25h2.9a8 8 0 0 1 3 1.1 9.88 9.88 0 0 1 2.35 2.07l29.21-1a5.49 5.49 0 0 1 5.3 3 5.79 5.79 0 0 1 .65 2.18 4.69 4.69 0 0 1-.33 2.28 5.68 5.68 0 0 1-5.5 3.36h-.59l-29-2a10.72 10.72 0 0 1-2.33 2.28 5.51 5.51 0 0 1-3 .91v-.1h-2.6v2.65a12.35 12.35 0 0 1 5.89.17A12 12 0 0 1 32 53.16a11.81 11.81 0 0 1 19.9 7.43 3.74 3.74 0 0 1 1.48 1 3.56 3.56 0 0 1 .38 4.09h1.17a3.52 3.52 0 0 1 2.47 1 3.39 3.39 0 0 1 1 2.46 3.46 3.46 0 0 1-.4 1.72h3.34a1 1 0 0 1 .93.6 1 1 0 0 1-.27 1.08 31.23 31.23 0 0 1-12.3 7.58c-.66.23-1.32.44-1.89.61s-1.35.34-2.07.49h-28a.86.86 0 0 1-.32 0c-.78-.17-1.48-.36-2.12-.53l-2.11-.64c-1-.34-1.89-.68-2.86-1a25.67 25.67 0 0 1-2.63-1.2 31.06 31.06 0 0 1-4.1-2.46A27.08 27.08 0 0 1 .25 72.6a1 1 0 0 1 0-1.33 1 1 0 0 1 .75-.34h3.93a3.29 3.29 0 0 1-.43-1.68 3.48 3.48 0 0 1 1-2.49 4 4 0 0 1 1.61-.87V47.11H6a1 1 0 0 1-.89-.51 1.07 1.07 0 0 1 .42-1.44A1.05 1.05 0 0 1 6 45h1.15v-1.51H6.07a1 1 0 0 1-.89-.49 1 1 0 0 1 .42-1.44 1 1 0 0 1 .49-.13h1v-2.6H6a1 1 0 0 1-.89-.51 1.06 1.06 0 0 1 .42-1.44 1 1 0 0 1 .49-.13h1.09v-1.56h-1ZM23 34.7h-2.42v2.14h1.8a1 1 0 0 1 .9.51 1.08 1.08 0 0 1-.91 1.58h-1.79l-.51 2.57h2.05a.85.85 0 0 1 1 .69v.17c0 .53-1 .7-1 .7h-1.54v2.06h2.54a2.12 2.12 0 0 0 1.9-.34 8.83 8.83 0 0 0 2.27-2.25 1 1 0 0 1 .86-.44l29.5 2.07a3.94 3.94 0 0 0 3.79-2.09 3.36 3.36 0 0 0 .19-1.44 4.24 4.24 0 0 0-.45-1.48 3.59 3.59 0 0 0-3.41-2l-29.61 1a.89.89 0 0 1-.77-.36 8.87 8.87 0 0 0-2.18-2A5.94 5.94 0 0 0 23 35Zm-8.1-1.9v28.05a3.37 3.37 0 0 1 1.33-.28h2.25V32.75a2.23 2.23 0 0 0-.55-1.5 1.71 1.71 0 0 0-1.25-.59 1.75 1.75 0 0 0-1.27.59 2.35 2.35 0 0 0-.55 1.5ZM20.07 52v3.43a7.49 7.49 0 0 1 2.39-.4 7.76 7.76 0 0 1 3.39.78 6.4 6.4 0 0 1 2.5 2.2 12.38 12.38 0 0 1 1.73-3.2A10.12 10.12 0 0 0 25.47 52a10.52 10.52 0 0 0-5.4 0Zm0 5.53v3.13h7.37a4.43 4.43 0 0 0-1.36-2.42 4 4 0 0 0-1-.63 5.85 5.85 0 0 0-2.56-.61 5.47 5.47 0 0 0-2.39.55ZM8.7 46.16v19.58H13a3.59 3.59 0 0 1-.43-1.74 4.09 4.09 0 0 1 0-.7 4.84 4.84 0 0 1 .19-.65V31.48a2.28 2.28 0 0 0-.55-1.5 1.67 1.67 0 0 0-1.21-.57 1.7 1.7 0 0 0-1.31.59 2.23 2.23 0 0 0-.55 1.5v14.57Zm5.82 17.19a1.41 1.41 0 0 0 0 .29 1.71 1.71 0 0 0 0 .32 1.65 1.65 0 0 0 .48 1.19 1.74 1.74 0 0 0 1.2.5h34.36a1.78 1.78 0 0 0 1.2-.5 1.65 1.65 0 0 0 .49-1.15 1.77 1.77 0 0 0-.38-1.08 1.69 1.69 0 0 0-1-.55c-9.17-1.1-24.09 0-34.59 0a1.69 1.69 0 0 0-1.49.89Zm44.36 9.74H3.32a14.47 14.47 0 0 0 1.31 1 26.21 26.21 0 0 0 3.79 2.33c.79.41 1.61.81 2.46 1.17s1.74.7 2.67 1l1.9.64c.62.21 1.33.38 1.89.53h27.94c.62-.13 1.23-.28 1.89-.45l1.9-.59a29.73 29.73 0 0 0 6.27-3 31.13 31.13 0 0 0 3.51-2.66Zm-4.6-5.17H8.15a1.56 1.56 0 0 0-1.06.42 1.58 1.58 0 0 0-.45 1.1 1.54 1.54 0 0 0 .45 1.09 1.63 1.63 0 0 0 1.1.46H54.3a1.66 1.66 0 0 0 1.06-.42 1.46 1.46 0 0 0 .45-1.08 1.54 1.54 0 0 0-1.55-1.55ZM90.89 320.62l-.79-.8a10.47 10.47 0 0 0-14.8 14.8l.41.41a9.58 9.58 0 1 0 18.49 4 9.55 9.55 0 0 0 6.48-2.79 10.39 10.39 0 0 0 1.16-1.4l10.16 16.8.17.16a3.12 3.12 0 0 1-4.26 4.26l-.17-.16-14.85-8.61a.84.84 0 1 0-.8 1.4l14.68 8.75a2.29 2.29 0 0 0 .29.18l.08.07a4.84 4.84 0 0 0 6.53-6.53l-.1-.1-.23-.23-10.57-17.7a9.62 9.62 0 0 0-2.05-10.44l-.11-.11c-3.61-3.83-7.16-3.29-9.72-1.96Zm-14.33.38a8.77 8.77 0 1 1 0 12.4 8.76 8.76 0 0 1 0-12.4Zm13.71 23a8 8 0 0 1-1.28 1 7.88 7.88 0 0 1-11.8-9 10.45 10.45 0 0 0 13-1.46 10.76 10.76 0 0 0 .84-.95 7.12 7.12 0 0 1 1.58 4.51 7.82 7.82 0 0 1-2.34 5.9Zm9.19-20.39.17.18a7.88 7.88 0 0 1-5.33 13.45 8.68 8.68 0 0 0-2.3-5.12 10.48 10.48 0 0 0-.1-10.1 6 6 0 0 1 7.56 1.6ZM168.14 254.71v-1.12a10.47 10.47 0 0 0-20.92.67v.58a9.58 9.58 0 0 0 8.25 17.29 9.44 9.44 0 0 0 2.53-1.73 9.56 9.56 0 0 0 6.63 2.4 12.27 12.27 0 0 0 1.81-.23l-4.07 19.22v.21a3.12 3.12 0 0 1-3.76 2.31 3.09 3.09 0 0 1-2.26-2.12V292l-4.95-16.44a.84.84 0 1 0-1.68 0 .94.94 0 0 0 .13.46l4.73 16.43a1.68 1.68 0 0 0 .09.32v.11a4.84 4.84 0 0 0 9.24-.29v-.14a1.82 1.82 0 0 0 0-.33l4.4-20.14a9.6 9.6 0 0 0 5.64-9v-.16c-.05-5.27-3.03-7.32-5.81-8.11Zm-10.7-9.54a8.77 8.77 0 1 1-8.49 9.05 8.78 8.78 0 0 1 8.49-9.05Zm-5.75 26.18a7.51 7.51 0 0 1-1.64-.12 7.88 7.88 0 0 1-2.46-14.64 10.49 10.49 0 0 0 10.46 7.8c.43 0 .85-.06 1.27-.12a7.15 7.15 0 0 1-1.94 4.37 7.81 7.81 0 0 1-5.69 2.71Zm20.65-8.59v.24a7.88 7.88 0 0 1-13.09 6.16 8.69 8.69 0 0 0 1.86-5.29 10.43 10.43 0 0 0 6.84-7.43 6 6 0 0 1 4.39 6.32ZM298.13 406.14l.8-.79a10.47 10.47 0 0 0-14.8-14.8l-.41.41a9.58 9.58 0 1 0-7 17.85 9.45 9.45 0 0 0 3 .64 9.55 9.55 0 0 0 2.79 6.48 10.39 10.39 0 0 0 1.4 1.16l-16.8 10.18-.17.17a3.12 3.12 0 0 1-4.26-4.26l.17-.17 8.6-14.85a.84.84 0 1 0-1.4-.8L261.31 422l-.18.29-.07.08a4.84 4.84 0 0 0 6.53 6.53l.1-.1.23-.23 17.7-10.57a9.6 9.6 0 0 0 10.44-2l.11-.11c3.83-3.6 3.29-7.19 1.96-9.75Zm-.36-14.33a8.77 8.77 0 1 1-12.4 0 8.76 8.76 0 0 1 12.4 0Zm-23 13.71a8.55 8.55 0 0 1-1-1.28 7.88 7.88 0 0 1 9-11.8 10.44 10.44 0 0 0 1.47 13 10.64 10.64 0 0 0 .94.84 7.1 7.1 0 0 1-4.51 1.58 7.82 7.82 0 0 1-5.93-2.34Zm20.39 9.18-.17.18a7.89 7.89 0 0 1-13.46-5.33 8.74 8.74 0 0 0 5.14-2.26 10.46 10.46 0 0 0 10.09-.1 6 6 0 0 1-1.63 7.51ZM212.71 340.81a4.35 4.35 0 0 0 4.13 3.41 2.93 2.93 0 0 0 3-3.6 4.37 4.37 0 0 0-4.09-3.42 3 3 0 0 0-3.09 2.83 2.83 2.83 0 0 0 .07.77Zm3-2.32a3.09 3.09 0 0 1 2.87 2.4 1.87 1.87 0 0 1-.34 1.53 1.85 1.85 0 0 1-1.45.6 3 3 0 0 1-1.78-.67 3.1 3.1 0 0 1-1-1.65 1.86 1.86 0 0 1 .36-1.54 1.69 1.69 0 0 1 1.38-.72ZM202.92 327.42a4.12 4.12 0 0 0 3.9 3.27 2.78 2.78 0 0 0 2.32-1 2.9 2.9 0 0 0 .59-2.44 4.17 4.17 0 0 0-3.93-3.25 2.92 2.92 0 0 0-2.29 1 2.84 2.84 0 0 0-.59 2.42Zm2.82-2.21a2.78 2.78 0 0 1 1.74.68 3 3 0 0 1 1 1.63 1.71 1.71 0 0 1-.33 1.43 1.65 1.65 0 0 1-1.34.57 3 3 0 0 1-1.76-.68 2.87 2.87 0 0 1-1-1.64 1.69 1.69 0 0 1 .31-1.44 1.72 1.72 0 0 1 1.38-.55ZM222.65 331.7a3.73 3.73 0 0 0 1.26 2.11 3.64 3.64 0 0 0 2.3.87 2.49 2.49 0 0 0 2.58-3.09 3.83 3.83 0 0 0-3.57-3 2.72 2.72 0 0 0-2.05.85 2.68 2.68 0 0 0-.52 2.26Zm2.62-1.94a2.5 2.5 0 0 1 1.52.59 2.62 2.62 0 0 1 .87 1.4 1.44 1.44 0 0 1-.28 1.23 1.41 1.41 0 0 1-1.16.47 2.33 2.33 0 0 1-1.53-.58 2.51 2.51 0 0 1-.86-1.41 1.51 1.51 0 0 1 .28-1.23 1.44 1.44 0 0 1 1.16-.47ZM212.06 332.53l3.35 1.66 1.46-5.37-3.15-1.41-.21.63Zm3.31-3-.81 2.94-1.08-.55.92-2.82ZM222.65 336.23l-2.08 1.77 3.87 4.58 2.72-2.27-4.07-4.51Zm.35 1.31 2.39 2.68-.74.73-2.29-2.71Z" class="cls-1" />
      <path d="M234.55 360.75a55.25 55.25 0 0 0 9.18-16.91l-1.15-.41 1.15.41a52.67 52.67 0 0 0 2.13-8.21 22.84 22.84 0 0 0 .3-5.16l-.25-1.28v-.18l.12-.46a10.34 10.34 0 0 0-.54-2.34 6.54 6.54 0 0 0-1.93-2.77 6.76 6.76 0 0 0-1.93-1.07l-.24-.08-1.22-.37a8 8 0 0 0-4.35-.13 6.4 6.4 0 0 0-3.95 3.25l-39.17-8.79a3.81 3.81 0 0 0-2.4.24 5.19 5.19 0 0 0-1.65 1.25l-1 1a12.44 12.44 0 0 0-1.32 1.88 3.64 3.64 0 0 0-.43 1.25 2.53 2.53 0 0 0 0 .91 2.49 2.49 0 0 0 .44 1c.08.08 8.26 10.89 16.58 21.85 4.18 5.48 8.37 11 11.66 15.17l4 5.14 1.22 1.54.45.45.6.6.13.13.26.08a3.57 3.57 0 0 0 .46 0 21.57 21.57 0 0 0 12.85-7.99Zm-12.66 5.43-.23-.24-1.18-1.46-3.9-5-.44-.57-.73-.95-.45-.6-1.06-1.36-9.1-11.74-16.31-21.56-.3-.3a.37.37 0 0 1 .05-.18 1.79 1.79 0 0 1 .13-.32 6.9 6.9 0 0 1 .42-.63l.13-.14a2.82 2.82 0 0 0 .53-.66 6.76 6.76 0 0 1 .93-.92 3.73 3.73 0 0 1 .44-.45 3.8 3.8 0 0 1 .41-.49l.09-.09a1.69 1.69 0 0 1 .74-.08l40.28 9.18a20.21 20.21 0 0 1-.21 3.48 49.9 49.9 0 0 1-11.24 24.43l-28.71-36.44-1 .75 29 36.93.33-.33.24.23.18.19.08-.08.09.09.22-.21a3.72 3.72 0 0 1 3.44.81 4.24 4.24 0 0 1 1.5 3.27 4.83 4.83 0 0 1-1.36 2.75 13.79 13.79 0 0 1-3.01 2.69Zm4-1.32c-.33.17-.69.35-1 .49a10.81 10.81 0 0 0 1.07-1.07 5.92 5.92 0 0 0 1.69-3.58 5.46 5.46 0 0 0-1.92-4.2 5.18 5.18 0 0 0-3.16-1.22 54 54 0 0 0 9.23-17.15 41.65 41.65 0 0 0 1.61-6.88 19.33 19.33 0 0 0 .2-4 4.81 4.81 0 0 1 .32-.82l.17-.17q.24-.4.51-.78a3.18 3.18 0 0 1 .41-.41l.11-.11a2.27 2.27 0 0 1 .31-.31 4 4 0 0 1 1.09-.5 4.94 4.94 0 0 1 1.33-.15 6 6 0 0 1 1.58.24l.88.28.35.13.33.12a3.35 3.35 0 0 1 1 .58 3.19 3.19 0 0 1 .45.45l.16.15.32.33.12.12.27.58a4.35 4.35 0 0 1 .22.86l.05.18.07.07.25 1.33a9.73 9.73 0 0 1 .17 2.47 26.29 26.29 0 0 1-.31 3.19l-.08.08c-.1.49-.18 1-.29 1.5-.08.08-.06.29-.08.45l-.33 1.39-.11.42c-.31 1.18-.7 2.44-1.11 3.74-.1.11-.1.35-.17.52-.17.46-.33.93-.51 1.41a1.84 1.84 0 0 0-.24.6l-.7 1.73c-.05.11-.1.22-.14.33-.25.57-.52 1.15-.79 1.72-.09.21-.19.42-.29.63-.23.43-.45.9-.69 1.34a2.39 2.39 0 0 0-.3.57c-.68 1.25-1.39 2.47-2.15 3.65l-.29.45-.93 1.32-.38.38c-.41.57-.83 1.1-1.25 1.63a14.07 14.07 0 0 1-1.16 1.16 4 4 0 0 0-.36.35l-.79.79-.39.4-1 1-.49.49-.65.5a1.36 1.36 0 0 1-.64.42c-.27.07-.3.31-.56.36a3.86 3.86 0 0 0-1 .53ZM287.88 266.65a4.36 4.36 0 0 0-2.19-4.89 2.92 2.92 0 0 0-4.28 1.9 4.36 4.36 0 0 0 2.15 4.89 3 3 0 0 0 4-1.18 2.69 2.69 0 0 0 .28-.71Zm-3.68.77a3.07 3.07 0 0 1-1.51-3.42 1.7 1.7 0 0 1 2.55-1.12 3 3 0 0 1 1.3 1.39 3.13 3.13 0 0 1 .16 1.91 1.89 1.89 0 0 1-1 1.23 1.75 1.75 0 0 1-1.56 0ZM290.74 283a4.12 4.12 0 0 0-2.06-4.66 2.78 2.78 0 0 0-2.51-.15 2.9 2.9 0 0 0-1.61 1.92 4.18 4.18 0 0 0 2.07 4.67 2.91 2.91 0 0 0 2.51.12 2.86 2.86 0 0 0 1.6-1.9Zm-3.51.74a3 3 0 0 1-1.45-3.29 1.69 1.69 0 0 1 .93-1.14 1.62 1.62 0 0 1 1.44.08 2.93 2.93 0 0 1 1.28 1.39 2.81 2.81 0 0 1 .18 1.91 1.57 1.57 0 0 1-2.38 1.05ZM274.94 270.42a3.76 3.76 0 0 0-.2-2.45 3.59 3.59 0 0 0-1.67-1.79 2.62 2.62 0 0 0-2.3-.11 2.68 2.68 0 0 0-1.39 1.73 3.85 3.85 0 0 0 1.88 4.26 2.71 2.71 0 0 0 2.21.14 2.66 2.66 0 0 0 1.47-1.78Zm-3.21.58a2.51 2.51 0 0 1-1.1-1.2 2.57 2.57 0 0 1-.16-1.64 1.45 1.45 0 0 1 .79-1 1.41 1.41 0 0 1 1.25.09 2.38 2.38 0 0 1 1.12 1.2 2.5 2.5 0 0 1 .14 1.64 1.5 1.5 0 0 1-.79 1 1.44 1.44 0 0 1-1.25-.09ZM284.8 274.37l-2.27-3-3.68 4.16 2.2 2.66.47-.47Zm-4.28 1.19 2-2.28.73 1-2.08 2.12ZM277 266.36l2.65-.71-1.43-5.81-3.44.83 1.64 5.84Zm.26-1.33-1-3.46 1-.33.86 3.45Z" class="cls-1" />
      <path d="M277.13 239.1a55.22 55.22 0 0 0-15.72 11.1l.85.87-.85-.87a51.36 51.36 0 0 0-5.54 6.42 22.94 22.94 0 0 0-2.56 4.49l-.34 1.26-.06.18-.31.36a10.27 10.27 0 0 0-.55 2.33 6.7 6.7 0 0 0 .5 3.34 6.72 6.72 0 0 0 1.27 1.81l.18.18.92.87a8 8 0 0 0 3.85 2 6.39 6.39 0 0 0 3.78-.45 6.84 6.84 0 0 0 1.2-.7L295 297.54a3.67 3.67 0 0 0 2.26.85 5.09 5.09 0 0 0 2-.39l1.32-.45a12.16 12.16 0 0 0 2-1.09 4 4 0 0 0 .95-.93 2.81 2.81 0 0 0 .41-.81 2.56 2.56 0 0 0 .05-1.1c0-.11-2.58-13.42-5.19-26.93-1.33-6.76-2.63-13.59-3.74-18.76l-1.32-6.39-.41-1.93-.21-.6-.27-.79-.06-.18-.2-.19a2.55 2.55 0 0 0-.39-.24 21.52 21.52 0 0 0-15.07 1.49Zm13.75.74.11.31.41 1.84 1.28 6.22.14.7.24 1.18.13.74.35 1.67 3 14.56 5.08 26.55.14.41a.86.86 0 0 1-.13.14l-.26.23a7.08 7.08 0 0 1-.66.38l-.17.06a3.23 3.23 0 0 0-.77.35 5.37 5.37 0 0 1-1.23.42 3.39 3.39 0 0 1-.61.21 3 3 0 0 1-.58.25h-.12a1.48 1.48 0 0 1-.7-.25l-32.05-26.06a19.8 19.8 0 0 1 1.74-3 49.88 49.88 0 0 1 20.88-16.93l9.61 45.39 1.2-.25-9.67-46-.44.14-.11-.31-.08-.25h-.11v-.13l-.28.1a3.74 3.74 0 0 1-2.73-2.25 4.21 4.21 0 0 1 .1-3.6 4.88 4.88 0 0 1 2.44-1.87 14.46 14.46 0 0 1 3.85-.95Zm-4.13-.57h1.13a14.12 14.12 0 0 0-1.43.48 6 6 0 0 0-3.1 2.47 5.42 5.42 0 0 0-.13 4.62 5.16 5.16 0 0 0 2.28 2.49 54.2 54.2 0 0 0-15.87 11.28 42.58 42.58 0 0 0-4.49 5.46 20.23 20.23 0 0 0-2 3.52 5.17 5.17 0 0 1-.64.6l-.23.07a6.56 6.56 0 0 1-.81.47 2.76 2.76 0 0 1-.55.19l-.14.05a2.07 2.07 0 0 1-.42.14 4 4 0 0 1-1.19 0 4.64 4.64 0 0 1-1.26-.46 6 6 0 0 1-1.32-.91l-.67-.64-.24-.27-.25-.25a3.48 3.48 0 0 1-.64-1 3 3 0 0 1-.2-.6l-.08-.21-.14-.44-.06-.16v-.64a4.49 4.49 0 0 1 .18-.87v-.27l.37-1.31a10.13 10.13 0 0 1 .94-2.29 24.72 24.72 0 0 1 1.7-2.72h.1c.3-.4.59-.81.93-1.22.1 0 .17-.24.27-.37l.91-1.09.3-.39c.81-.92 1.7-1.87 2.65-2.86.14 0 .24-.26.38-.39.36-.34.71-.69 1.09-1 .17-.06.31-.28.48-.44l1.39-1.23a1.55 1.55 0 0 0 .27-.24c.48-.39 1-.8 1.47-1.18.18-.16.36-.3.54-.44.4-.29.8-.61 1.21-.9a2.72 2.72 0 0 0 .53-.38c1.16-.82 2.33-1.6 3.54-2.32l.46-.28 1.41-.77.51-.17c.62-.33 1.23-.62 1.85-.9a11 11 0 0 1 1.55-.53 4.5 4.5 0 0 0 .48-.16l1.06-.36.53-.18 1.29-.44.65-.22.81-.15a1.29 1.29 0 0 1 .76-.1c.28.06.4-.14.66-.07a4.57 4.57 0 0 0 1.11 0ZM32.7 416.47a4.34 4.34 0 0 0 4.75-2.47 2.93 2.93 0 0 0-2.15-4.16 4.36 4.36 0 0 0-4.75 2.43 3 3 0 0 0 1.41 4 2.7 2.7 0 0 0 .73.23Zm-1-3.63a3.12 3.12 0 0 1 1.43-1.44 3.19 3.19 0 0 1 1.9-.27 1.71 1.71 0 0 1 1.27 2.49 2.92 2.92 0 0 1-3.22 1.64 1.85 1.85 0 0 1-1.28-.93 1.73 1.73 0 0 1-.13-1.55ZM16.55 420.28a4.12 4.12 0 0 0 4.53-2.28 2.8 2.8 0 0 0 0-2.52 2.91 2.91 0 0 0-2-1.5 4.18 4.18 0 0 0-4.54 2.35 2.92 2.92 0 0 0 0 2.5 2.87 2.87 0 0 0 2.01 1.45Zm-.94-3.47a2.77 2.77 0 0 1 1.31-1.33 2.89 2.89 0 0 1 1.89-.31A1.72 1.72 0 0 1 20 416a1.64 1.64 0 0 1 0 1.45 3 3 0 0 1-1.32 1.36 2.84 2.84 0 0 1-1.9.28 1.67 1.67 0 0 1-1.2-.84 1.71 1.71 0 0 1 .03-1.44ZM28.17 403.77a3.68 3.68 0 0 0 2.44-.34 3.61 3.61 0 0 0 1.7-1.77 2.67 2.67 0 0 0 0-2.31 2.72 2.72 0 0 0-1.81-1.28 3.84 3.84 0 0 0-4.15 2.13 2.5 2.5 0 0 0 1.85 3.57Zm-.76-3.17a2.62 2.62 0 0 1 2.77-1.42 1.35 1.35 0 0 1 1 2 2.36 2.36 0 0 1-1.13 1.18 2.49 2.49 0 0 1-1.63.24 1.46 1.46 0 0 1-1-.74 1.44 1.44 0 0 1-.01-1.26ZM24.81 413.85l2.84-2.44-4.37-3.41-2.53 2.35.5.45Zm-1.44-4.21 2.39 1.89-.93.78-2.24-1.95ZM32.35 405.54l.86 2.61 5.72-1.77-1-3.39-5.74 2Zm1.34.18 3.4-1.15.39 1-3.39 1.06Z" class="cls-1" />
      <path d="M59.57 404.13a55.3 55.3 0 0 0-12-15l-.83.89.83-.89a51.85 51.85 0 0 0-6.74-5.16 22.17 22.17 0 0 0-4.63-2.29l-1.28-.27h-.18l-.38-.29a9.91 9.91 0 0 0-2.36-.42 6.52 6.52 0 0 0-3.3.7 6.59 6.59 0 0 0-1.7 1.29l-.16.18-.81 1a7.81 7.81 0 0 0-1.82 3.95 6.45 6.45 0 0 0 .67 3.76 7 7 0 0 0 .77 1.15L2.27 425.36a3.74 3.74 0 0 0-.72 2.3 5.19 5.19 0 0 0 .51 2l.53 1.34a12.21 12.21 0 0 0 1.21 2 4 4 0 0 0 1 .89 2.61 2.61 0 0 0 .84.36 2.41 2.41 0 0 0 1.1 0c.1 0 13.24-3.35 26.58-6.75 6.67-1.71 13.4-3.42 18.51-4.82l6.3-1.69 1.9-.53.59-.24.77-.31.18-.07.17-.21a2.32 2.32 0 0 0 .22-.41 21.55 21.55 0 0 0-2.39-15.09Zm.07 13.78-.31.12-1.81.51-6.13 1.64-.7.18-1.16.31-.73.18-1.65.45-14.36 3.8-26.21 6.62-.4.16a.79.79 0 0 1-.15-.12 2.72 2.72 0 0 1-.24-.24 7.06 7.06 0 0 1-.42-.64l-.07-.17a2.93 2.93 0 0 0-.4-.74 6.22 6.22 0 0 1-.49-1.21 6.07 6.07 0 0 1-.24-.59 3.81 3.81 0 0 1-.29-.57.56.56 0 0 1 0-.12 1.5 1.5 0 0 1 .21-.71l24.11-33.51a20.14 20.14 0 0 1 3.12 1.55 49.85 49.85 0 0 1 18.12 19.87L4.69 426.91l.31 1.18 45.31-12.32-.17-.44.31-.12.24-.1v-.1l.12-.05-.11-.28a3.75 3.75 0 0 1 2.08-2.86 4.24 4.24 0 0 1 3.6-.11 4.89 4.89 0 0 1 2 2.33 14.22 14.22 0 0 1 1.26 3.87Zm.33-4.16c0 .37.05.76.05 1.12a12.85 12.85 0 0 0-.57-1.4 5.93 5.93 0 0 0-2.64-3 5.43 5.43 0 0 0-4.61.14 5.13 5.13 0 0 0-2.36 2.42 54.44 54.44 0 0 0-12.19-15.13 42.39 42.39 0 0 0-5.72-4.16 18.88 18.88 0 0 0-3.62-1.74 5.2 5.2 0 0 1-.63-.61 1.57 1.57 0 0 0-.09-.23c-.19-.25-.36-.51-.52-.77a4.08 4.08 0 0 1-.22-.54l-.05-.14a2.09 2.09 0 0 1-.17-.41 4 4 0 0 1 0-1.2 4.85 4.85 0 0 1 .39-1.28 5.57 5.57 0 0 1 .83-1.36l.6-.71.26-.26.23-.26a3.55 3.55 0 0 1 .93-.7 5.19 5.19 0 0 1 .59-.24l.2-.08.44-.17.15-.07h.64a4.24 4.24 0 0 1 .87.12h.28l1.33.29a10 10 0 0 1 2.33.8 25.69 25.69 0 0 1 2.82 1.54v.1c.41.28.85.55 1.27.86 0 .1.25.16.38.24l1.15.85.35.26c1 .75 2 1.59 3 2.48.05.14.27.23.4.36.36.33.74.66 1.1 1 .07.17.3.3.47.45l1.36 1.31a3 3 0 0 0 .24.26c.43.46.86.92 1.27 1.4a4.51 4.51 0 0 1 .47.51c.32.38.66.77 1 1.16.07.19.27.33.4.5.89 1.11 1.73 2.24 2.53 3.4l.3.45.85 1.36.2.5c.37.6.69 1.19 1 1.79a13.21 13.21 0 0 1 .62 1.52 3.66 3.66 0 0 0 .18.46l.43 1 .21.52.51 1.26.26.64.2.8a1.35 1.35 0 0 1 .14.75c0 .28.16.4.11.66a5.1 5.1 0 0 0 .1 1.11ZM343.57 345a6.48 6.48 0 0 1 12.83 0h3.79a9.91 9.91 0 0 0-19.63 0Zm3.18-2.29a4.5 4.5 0 0 0-1.25 2.29h8.95a4.47 4.47 0 0 0-1.23-2.29 4.55 4.55 0 0 0-6.44 0Zm-30.11-23.31a1 1 0 0 1-.91-.95c0-.53 1-.85 1-.85h1v-1.39a4 4 0 0 1 1.1-2.76 3.66 3.66 0 0 1 5.42 0 3.66 3.66 0 0 1 .59.77 3.67 3.67 0 0 1 2.46-.92 3.76 3.76 0 0 1 2.73 1.19 3.92 3.92 0 0 1 1.1 2.77v.24H334a8.11 8.11 0 0 1 3 1.1 10.53 10.53 0 0 1 2.35 2.07l29.2-1a5.73 5.73 0 0 1 5.95 5.21 4.79 4.79 0 0 1-.32 2.28 5.7 5.7 0 0 1-5.5 3.28h-.59l-29-2a11 11 0 0 1-2.33 2.28 5.49 5.49 0 0 1-3 .91v-.1h-2.6v2.66a12.15 12.15 0 0 1 5.9.17 12 12 0 0 1 5.46 3.2 11.8 11.8 0 0 1 19.92 7.44 3.78 3.78 0 0 1 1.48 1 3.58 3.58 0 0 1 .38 4.1h1.18a3.49 3.49 0 0 1 2.46 1 3.41 3.41 0 0 1 1 2.46 3.57 3.57 0 0 1-.43 1.69h3.33a.94.94 0 0 1 .93.61 1 1 0 0 1-.26 1.08 31.49 31.49 0 0 1-12.3 7.58l-1.9.6c-.57.17-1.34.34-2.06.5h-28a.91.91 0 0 1-.33 0c-.77-.17-1.47-.36-2.12-.53l-2.1-.65c-1-.34-1.9-.68-2.86-1a25.86 25.86 0 0 1-2.64-1.2 30.31 30.31 0 0 1-4.07-2.42 27.94 27.94 0 0 1-3.36-2.79 1 1 0 0 1 0-1.32.94.94 0 0 1 .74-.34h3.94a3.57 3.57 0 0 1-.43-1.69 3.5 3.5 0 0 1 1-2.48 3.86 3.86 0 0 1 1.61-.88v-18.76h-1.15a1 1 0 0 1-.89-.51 1.05 1.05 0 0 1 .9-1.57h1.14v-1.54h-1.08a1 1 0 0 1-.89-.51 1.07 1.07 0 0 1 .42-1.44 1.05 1.05 0 0 1 .49-.13h1v-2.58h-1.08a1 1 0 0 1-.89-.51 1.07 1.07 0 0 1 .42-1.44 1.05 1.05 0 0 1 .49-.13h1.06v-1.56h-1Zm16.94-.25h-2.44v2.14h1.8a1 1 0 0 1 .89.51 1.08 1.08 0 0 1-.42 1.45 1.19 1.19 0 0 1-.49.13h-1.78l-.51 2.58h2a.82.82 0 0 1 1 .69.81.81 0 0 1 0 .16c0 .53-1 .7-1 .7h-1.53v2.06h2.54a2.07 2.07 0 0 0 1.89-.34 8.87 8.87 0 0 0 2.28-2.25.94.94 0 0 1 .85-.44l29.51 2.07a3.92 3.92 0 0 0 3.79-2.09 3.52 3.52 0 0 0 .19-1.44 4.27 4.27 0 0 0-.46-1.47 3.56 3.56 0 0 0-3.41-2l-29.6 1a.91.91 0 0 1-.78-.36 8.88 8.88 0 0 0-2.18-2 5.81 5.81 0 0 0-2.18-.81Zm-8.13-1.89v28a3.37 3.37 0 0 1 1.33-.28H329V317.2a2.19 2.19 0 0 0-.55-1.5 1.68 1.68 0 0 0-1.25-.58 1.78 1.78 0 0 0-1.27.58 2.41 2.41 0 0 0-.55 1.5Zm5.18 19.19v3.43a7.11 7.11 0 0 1 2.38-.39 7.69 7.69 0 0 1 3.4.77 6.55 6.55 0 0 1 2.5 2.2 12.21 12.21 0 0 1 1.72-3.2 10.21 10.21 0 0 0-4.6-2.81 10.52 10.52 0 0 0-5.4 0Zm0 5.54v3.12H338a4.38 4.38 0 0 0-1.37-2.42 4 4 0 0 0-1-.63 6 6 0 0 0-2.56-.58 5.24 5.24 0 0 0-2.39.55Zm-11.37-11.37v19.57h4.34a3.47 3.47 0 0 1-.48-1.78 4.09 4.09 0 0 1 0-.7c.05-.22.12-.43.19-.64v-31.14a2.24 2.24 0 0 0-.55-1.5 1.66 1.66 0 0 0-1.25-.57 1.71 1.71 0 0 0-1.27.57 2.24 2.24 0 0 0-.55 1.5v14.59Zm5.81 17.19v.28a2.08 2.08 0 0 0 .5 1.52 1.69 1.69 0 0 0 1.19.49h34.36a1.77 1.77 0 0 0 1.19-.49 1.65 1.65 0 0 0 .49-1.2 1.76 1.76 0 0 0-.37-1.08 1.72 1.72 0 0 0-1-.55c-9.17-1.1-24.08 0-34.58 0a1.7 1.7 0 0 0-1.5.89Zm44.37 9.74h-55.57c.42.36.86.7 1.31 1a27.34 27.34 0 0 0 3.82 2.35c.8.42 1.61.82 2.47 1.18s1.74.7 2.67 1l1.89.64c.63.21 1.33.38 1.9.53h27.93c.63-.13 1.23-.28 1.9-.45l1.89-.59a28.57 28.57 0 0 0 6.27-3 29.34 29.34 0 0 0 3.51-2.65Zm-4.61-5.18h-46.12a1.57 1.57 0 0 0-1.07.42 1.65 1.65 0 0 0-.45 1.1 1.62 1.62 0 0 0 .45 1.1 1.67 1.67 0 0 0 1.1.45h46.11a1.65 1.65 0 0 0 1.06-.41 1.5 1.5 0 0 0 .46-1.08 1.56 1.56 0 0 0-1.56-1.56ZM157.07 415a6.48 6.48 0 0 1 12.83 0h3.79a9.92 9.92 0 0 0-19.64 0Zm3.18-2.29A4.5 4.5 0 0 0 159 415h9a4.49 4.49 0 0 0-1.24-2.29 4.54 4.54 0 0 0-6.43 0Zm-30.11-23.33a1 1 0 0 1-.91-.95c0-.53 1-.85 1-.85h1v-1.38a4 4 0 0 1 1.1-2.77 3.68 3.68 0 0 1 5.42 0 3.48 3.48 0 0 1 .59.78 3.61 3.61 0 0 1 2.46-.93 3.8 3.8 0 0 1 2.73 1.19 4 4 0 0 1 1.1 2.77v.24h2.9a8.18 8.18 0 0 1 3 1.1 10.1 10.1 0 0 1 2.35 2.07l29.21-1a5.49 5.49 0 0 1 5.3 3 5.36 5.36 0 0 1 .65 2.18 4.76 4.76 0 0 1-.32 2.27 5.7 5.7 0 0 1-5.5 3.28h-.59l-29-2a11.14 11.14 0 0 1-2.33 2.27 5.49 5.49 0 0 1-3 .91v-.1h-2.6v2.66a12.15 12.15 0 0 1 5.9.17 11.91 11.91 0 0 1 5.45 3.2 11.8 11.8 0 0 1 19.9 7.43 3.78 3.78 0 0 1 1.48 1 3.58 3.58 0 0 1 .38 4.1H179a3.51 3.51 0 0 1 2.46 1 3.41 3.41 0 0 1 1 2.46 3.54 3.54 0 0 1-.43 1.69h3.33A1 1 0 0 1 186 427a31.38 31.38 0 0 1-12.29 7.58c-.67.23-1.33.43-1.9.6s-1.34.35-2.06.5h-28a.86.86 0 0 1-.32 0c-.77-.17-1.48-.36-2.12-.53l-2.1-.65c-1-.34-1.9-.68-2.86-1a27.11 27.11 0 0 1-2.64-1.19 31.47 31.47 0 0 1-4.07-2.43 27.18 27.18 0 0 1-3.34-2.88 1 1 0 0 1 0-1.32 1 1 0 0 1 .74-.34H129a3.57 3.57 0 0 1-.43-1.69 3.46 3.46 0 0 1 1-2.48 3.73 3.73 0 0 1 1.61-.87v-18.77H130a1 1 0 0 1-.89-.52 1.07 1.07 0 0 1 .42-1.44 1.05 1.05 0 0 1 .49-.13h1.14v-1.53h-1.08a1 1 0 0 1-.89-.52 1.06 1.06 0 0 1 .91-1.57h1v-2.58h-1.08a1 1 0 0 1-.89-.51 1.07 1.07 0 0 1 .42-1.44 1.05 1.05 0 0 1 .49-.13h1.06v-1.55h-1Zm16.94-.25h-2.44v2.14h1.8a1 1 0 0 1 .89.52 1.07 1.07 0 0 1-.42 1.44 1.05 1.05 0 0 1-.49.13h-1.78l-.52 2.58h2a.83.83 0 0 1 1 .69.81.81 0 0 1 0 .16c0 .53-1 .7-1 .7h-1.53v2.07h2.54a2.07 2.07 0 0 0 1.89-.35 8.87 8.87 0 0 0 2.28-2.25.94.94 0 0 1 .85-.44l29.5 2.07a3.9 3.9 0 0 0 3.79-2.09 3.21 3.21 0 0 0 .19-1.44 4 4 0 0 0-.45-1.47 3.56 3.56 0 0 0-3.41-2l-29.6 1a.88.88 0 0 1-.78-.36 9.27 9.27 0 0 0-2.18-2 5.87 5.87 0 0 0-2.18-.81Zm-8.08-1.91v28a3.38 3.38 0 0 1 1.33-.29h2.25v-27.77a2.24 2.24 0 0 0-.55-1.5 1.7 1.7 0 0 0-1.25-.58 1.78 1.78 0 0 0-1.27.58 2.35 2.35 0 0 0-.55 1.5Zm5.17 19.2v3.43a7.22 7.22 0 0 1 2.39-.4 7.76 7.76 0 0 1 3.39.77 6.51 6.51 0 0 1 2.51 2.2 12.37 12.37 0 0 1 1.72-3.2 10.11 10.11 0 0 0-4.6-2.8 10.34 10.34 0 0 0-5.46 0Zm0 5.53v3.13h7.38a4.37 4.37 0 0 0-1.37-2.43 4 4 0 0 0-1-.63 6 6 0 0 0-2.56-.58 5.21 5.21 0 0 0-2.39.55Zm-11.37-11.37v19.57h4.34a3.56 3.56 0 0 1-.47-1.78 4.09 4.09 0 0 1 0-.7c0-.22.12-.43.19-.64v-31.14a2.24 2.24 0 0 0-.55-1.5 1.61 1.61 0 0 0-1.25-.56 1.65 1.65 0 0 0-1.27.56 2.24 2.24 0 0 0-.55 1.5v14.59Zm5.82 17.19a1.31 1.31 0 0 0 0 .28 1.71 1.71 0 0 0 0 .32 1.73 1.73 0 0 0 .49 1.2 1.73 1.73 0 0 0 1.2.49h34.36a1.77 1.77 0 0 0 1.19-.49 1.65 1.65 0 0 0 .49-1.2 1.71 1.71 0 0 0-.38-1.08 1.72 1.72 0 0 0-1-.55c-9.17-1.1-24.09 0-34.58 0a1.69 1.69 0 0 0-1.5.89Zm44.37 9.74h-55.62c.42.36.86.7 1.31 1a26.76 26.76 0 0 0 3.79 2.33c.8.42 1.61.82 2.46 1.18s1.75.7 2.68 1l1.89.64c.63.21 1.33.38 1.9.53h27.93c.62-.13 1.23-.28 1.89-.45l1.9-.59a28.79 28.79 0 0 0 6.27-3 30.17 30.17 0 0 0 3.51-2.65Zm-4.61-5.18H132.2a1.56 1.56 0 0 0-1.06.42 1.62 1.62 0 0 0-.45 1.1 1.56 1.56 0 0 0 .45 1.1 1.67 1.67 0 0 0 1.1.45h46.11a1.6 1.6 0 0 0 1.06-.41 1.5 1.5 0 0 0 .46-1.08 1.56 1.56 0 0 0-1.56-1.56ZM33 275a6.48 6.48 0 0 1 12.83 0h3.79A9.92 9.92 0 0 0 30 275Zm3.18-2.3A4.5 4.5 0 0 0 35 275h8.94a4.47 4.47 0 0 0-1.23-2.3 4.56 4.56 0 0 0-6.43 0ZM6.09 249.4a1 1 0 0 1-.91-1c0-.53 1-.85 1-.85h1v-1.39a3.94 3.94 0 0 1 1.1-2.76 3.66 3.66 0 0 1 5.42 0 4 4 0 0 1 .59.77 3.71 3.71 0 0 1 2.46-.93 3.79 3.79 0 0 1 2.73 1.2 3.94 3.94 0 0 1 1.1 2.76v.25h2.9a8 8 0 0 1 3 1.1 9.88 9.88 0 0 1 2.35 2.07l29.21-1a5.49 5.49 0 0 1 5.3 3 5.79 5.79 0 0 1 .65 2.18 4.69 4.69 0 0 1-.33 2.28 5.68 5.68 0 0 1-5.49 3.27h-.67l-29-1.95a10.72 10.72 0 0 1-2.33 2.28 5.51 5.51 0 0 1-3 .91v-.1h-2.6v2.65a12.35 12.35 0 0 1 5.89.17 12 12 0 0 1 5.54 3.3A11.81 11.81 0 0 1 51.89 275a3.74 3.74 0 0 1 1.48 1 3.56 3.56 0 0 1 .38 4.09h1.17a3.52 3.52 0 0 1 2.47 1 3.39 3.39 0 0 1 1 2.46 3.46 3.46 0 0 1-.44 1.69h3.34a1 1 0 0 1 .93.6A1 1 0 0 1 62 287a31.23 31.23 0 0 1-12.3 7.58c-.66.23-1.32.44-1.89.61s-1.35.34-2.07.49h-28a.86.86 0 0 1-.32 0c-.78-.17-1.48-.36-2.12-.53l-2.11-.64c-1-.34-1.89-.68-2.86-1a25.67 25.67 0 0 1-2.63-1.2 31.06 31.06 0 0 1-4.08-2.42 27.08 27.08 0 0 1-3.35-2.79 1 1 0 0 1 0-1.33 1 1 0 0 1 .74-.34h3.92a3.29 3.29 0 0 1-.43-1.68 3.48 3.48 0 0 1 1-2.49 4 4 0 0 1 1.61-.87v-18.83H6a1 1 0 0 1-.89-.51 1.07 1.07 0 0 1 .42-1.44 1.05 1.05 0 0 1 .49-.13h1.13v-1.54H6.07a1 1 0 0 1-.89-.51A1 1 0 0 1 5.6 256a1 1 0 0 1 .49-.13h1v-2.58H6a1 1 0 0 1-.89-.51 1.06 1.06 0 0 1 .42-1.44 1 1 0 0 1 .49-.13h1.09v-1.56h-1Zm16.91-.25h-2.42v2.14h1.8a1 1 0 0 1 .9.51 1.08 1.08 0 0 1-.91 1.58h-1.79l-.51 2.62h2.05a.85.85 0 0 1 1 .69v.17c0 .53-1 .7-1 .7h-1.54v2.06h2.54a2.12 2.12 0 0 0 1.9-.34 8.83 8.83 0 0 0 2.27-2.28 1 1 0 0 1 .86-.44l29.5 2.07a3.94 3.94 0 0 0 3.79-2.09 3.36 3.36 0 0 0 .19-1.44 4.24 4.24 0 0 0-.45-1.48 3.59 3.59 0 0 0-3.41-2l-29.61 1a.89.89 0 0 1-.77-.36 8.87 8.87 0 0 0-2.18-2 5.94 5.94 0 0 0-2.21-.86Zm-8.13-1.9v28.05a3.37 3.37 0 0 1 1.33-.28h2.25V247.2a2.23 2.23 0 0 0-.55-1.5 1.71 1.71 0 0 0-1.25-.59 1.75 1.75 0 0 0-1.27.59 2.35 2.35 0 0 0-.55 1.5Zm5.17 19.2v3.43a7.49 7.49 0 0 1 2.39-.4 7.76 7.76 0 0 1 3.39.78 6.4 6.4 0 0 1 2.5 2.2 12.38 12.38 0 0 1 1.73-3.2 10.12 10.12 0 0 0-4.61-2.81 10.52 10.52 0 0 0-5.37 0Zm0 5.53v3.13h7.37a4.43 4.43 0 0 0-1.36-2.42 4 4 0 0 0-1-.63 5.85 5.85 0 0 0-2.56-.59 5.47 5.47 0 0 0-2.39.55ZM8.7 260.61v19.58H13a3.59 3.59 0 0 1-.47-1.78 4.09 4.09 0 0 1 0-.7 4.84 4.84 0 0 1 .19-.65v-31.13a2.28 2.28 0 0 0-.55-1.5 1.67 1.67 0 0 0-1.25-.57 1.7 1.7 0 0 0-1.27.57 2.23 2.23 0 0 0-.55 1.5v14.59Zm5.82 17.19a1.41 1.41 0 0 0 0 .29 1.71 1.71 0 0 0 0 .32 1.65 1.65 0 0 0 .48 1.19 1.74 1.74 0 0 0 1.2.5h34.36a1.78 1.78 0 0 0 1.2-.5 1.65 1.65 0 0 0 .49-1.19 1.77 1.77 0 0 0-.38-1.08 1.69 1.69 0 0 0-1-.55c-9.17-1.1-24.09 0-34.59 0a1.69 1.69 0 0 0-1.49.89Zm44.36 9.74H3.32a14.47 14.47 0 0 0 1.31 1 26.21 26.21 0 0 0 3.79 2.33c.79.41 1.61.81 2.46 1.17s1.74.7 2.67 1l1.9.64c.62.21 1.33.38 1.89.53h27.94c.62-.13 1.23-.28 1.89-.45l1.9-.59a29.73 29.73 0 0 0 6.27-3 31.13 31.13 0 0 0 3.51-2.66Zm-4.6-5.17H8.15a1.56 1.56 0 0 0-1.06.42 1.58 1.58 0 0 0-.45 1.1 1.54 1.54 0 0 0 .45 1.11 1.63 1.63 0 0 0 1.1.46H54.3a1.66 1.66 0 0 0 1.06-.42 1.46 1.46 0 0 0 .45-1.08 1.54 1.54 0 0 0-1.55-1.55Z" class="cls-1" />
      <path d="M1.55 0h372.93v435.65H1.55z" style="fill:none" />
    </g>
  </g>
</svg>